REM DIRINDEX 1\2,1\3,1\4,1\5
REM DIRNAME cjc004,folder01,folder02,folder03,folder04
TITLE ""
FILE "1Q_t_1819-1828.mp3" MP3
  TRACK 01 AUDIO
    TITLE "3:cjc004_6364"
    INDEX 01 00:00:00
  TRACK 02 AUDIO
    TITLE "0:"
    INDEX 01 00:00:66
  TRACK 03 AUDIO
    TITLE "4:cjc004_6365"
    INDEX 01 00:01:19
  TRACK 04 AUDIO
    TITLE "0:"
    INDEX 01 00:02:22
  TRACK 05 AUDIO
    TITLE "5:cjc004_6366"
    INDEX 01 00:02:51
  TRACK 06 AUDIO
    TITLE "0:"
    INDEX 01 00:06:04
  TRACK 07 AUDIO
    TITLE "3:cjc004_6367"
    INDEX 01 00:06:61
  TRACK 08 AUDIO
    TITLE "0:"
    INDEX 01 00:07:58
  TRACK 09 AUDIO
    TITLE "4:cjc004_6368"
    INDEX 01 00:08:13
  TRACK 10 AUDIO
    TITLE "0:"
    INDEX 01 00:09:53
  TRACK 11 AUDIO
    TITLE "5:cjc004_6369"
    INDEX 01 00:10:02
  TRACK 12 AUDIO
    TITLE "0:"
    INDEX 01 00:13:49
  TRACK 13 AUDIO
    TITLE "3:cjc004_6370"
    INDEX 01 00:14:29
  TRACK 14 AUDIO
    TITLE "0:"
    INDEX 01 00:15:40
  TRACK 15 AUDIO
    TITLE "4:cjc004_6371"
    INDEX 01 00:15:74
  TRACK 16 AUDIO
    TITLE "0:"
    INDEX 01 00:16:73
  TRACK 17 AUDIO
    TITLE "5:cjc004_6372"
    INDEX 01 00:17:25
  TRACK 18 AUDIO
    TITLE "0:"
    INDEX 01 00:21:25
  TRACK 19 AUDIO
    TITLE "3:cjc004_6373"
    INDEX 01 00:22:01
  TRACK 20 AUDIO
    TITLE "0:"
    INDEX 01 00:23:22
  TRACK 21 AUDIO
    TITLE "4:cjc004_6374"
    INDEX 01 00:23:44
  TRACK 22 AUDIO
    TITLE "0:"
    INDEX 01 00:24:45
  TRACK 23 AUDIO
    TITLE "5:cjc004_6375"
    INDEX 01 00:24:67
  TRACK 24 AUDIO
    TITLE "0:"
    INDEX 01 00:28:70
  TRACK 25 AUDIO
    TITLE "3:cjc004_6376"
    INDEX 01 00:29:58
  TRACK 26 AUDIO
    TITLE "0:"
    INDEX 01 00:30:65
  TRACK 27 AUDIO
    TITLE "4:cjc004_6377"
    INDEX 01 00:31:24
  TRACK 28 AUDIO
    TITLE "0:"
    INDEX 01 00:32:13
  TRACK 29 AUDIO
    TITLE "5:cjc004_6378"
    INDEX 01 00:32:43
  TRACK 30 AUDIO
    TITLE "0:"
    INDEX 01 00:35:63
  TRACK 31 AUDIO
    TITLE "3:cjc004_6379"
    INDEX 01 00:36:38
  TRACK 32 AUDIO
    TITLE "0:"
    INDEX 01 00:37:54
  TRACK 33 AUDIO
    TITLE "4:cjc004_6380"
    INDEX 01 00:38:10
  TRACK 34 AUDIO
    TITLE "0:"
    INDEX 01 00:39:13
  TRACK 35 AUDIO
    TITLE "5:cjc004_6381"
    INDEX 01 00:39:39
  TRACK 36 AUDIO
    TITLE "0:"
    INDEX 01 00:44:18
  TRACK 37 AUDIO
    TITLE "3:cjc004_6382"
    INDEX 01 00:44:69
  TRACK 38 AUDIO
    TITLE "0:"
    INDEX 01 00:46:15
  TRACK 39 AUDIO
    TITLE "4:cjc004_6383"
    INDEX 01 00:46:39
  TRACK 40 AUDIO
    TITLE "0:"
    INDEX 01 00:47:66
  TRACK 41 AUDIO
    TITLE "5:cjc004_6384"
    INDEX 01 00:48:14
  TRACK 42 AUDIO
    TITLE "0:"
    INDEX 01 00:53:13
  TRACK 43 AUDIO
    TITLE "3:cjc004_6385"
    INDEX 01 00:53:64
  TRACK 44 AUDIO
    TITLE "0:"
    INDEX 01 00:55:14
  TRACK 45 AUDIO
    TITLE "4:cjc004_6386"
    INDEX 01 00:55:42
  TRACK 46 AUDIO
    TITLE "0:"
    INDEX 01 00:56:71
  TRACK 47 AUDIO
    TITLE "5:cjc004_6387"
    INDEX 01 00:57:21
  TRACK 48 AUDIO
    TITLE "0:"
    INDEX 01 01:01:09
  TRACK 49 AUDIO
    TITLE "3:cjc004_6388"
    INDEX 01 01:01:60
  TRACK 50 AUDIO
    TITLE "0:"
    INDEX 01 01:02:69
  TRACK 51 AUDIO
    TITLE "4:cjc004_6389"
    INDEX 01 01:03:22
  TRACK 52 AUDIO
    TITLE "0:"
    INDEX 01 01:04:15
  TRACK 53 AUDIO
    TITLE "5:cjc004_6390"
    INDEX 01 01:04:41
  TRACK 54 AUDIO
    TITLE "0:"
    INDEX 01 01:08:27
  TRACK 55 AUDIO
    TITLE "3:cjc004_6391"
    INDEX 01 01:09:03
  TRACK 56 AUDIO
    TITLE "0:"
    INDEX 01 01:10:16
  TRACK 57 AUDIO
    TITLE "4:cjc004_6392"
    INDEX 01 01:10:47
  TRACK 58 AUDIO
    TITLE "0:"
    INDEX 01 01:12:24
  TRACK 59 AUDIO
    TITLE "5:cjc004_6393"
    INDEX 01 01:12:48
  TRACK 60 AUDIO
    TITLE "0:"
    INDEX 01 01:16:46
